<svg width="1759" height="416" viewBox="0 0 1759 416" fill="none" xmlns="http://www.w3.org/2000/svg">
<g id="comtreestack" filter="url(#filter0_d)">
<path id="Stack" d="M32.448 14.312L36.984 17.408L39 14.6L42.816 17.624L36.048 25.76L33.312 23.24L29.856 18.776L19.056 20.504L13.368 26.264L17.76 34.4L36.408 39.296L40.8 44.696L39.504 58.736L24.6 65.648L11.424 62.048L9.192 65.648L4.8 64.64L9.192 54.992L12.864 56.072L24.24 59.744L35.472 55.28L33.312 44.12L11.208 39.584L7.104 24.536L14.736 15.608L32.448 14.312ZM70.113 62.768L58.305 65L52.689 59.456V52.04V33.464L49.233 34.04L46.425 34.688L45.921 31.232L51.033 29.576H52.041V22.808L51.033 20.504H57.153L57.729 26.768V29.072L67.809 27.848V33.464L57.729 32.96V56.648L61.113 60.464L70.113 58.808V62.768ZM89.409 46.352L81.345 51.752L81.129 59.816L84.009 61.328C84.969 61.28 85.857 61.232 86.673 61.184C87.345 61.136 87.945 61.088 88.473 61.04C89.049 60.944 89.337 60.848 89.337 60.752C89.337 60.752 89.433 60.608 89.625 60.32C89.817 60.032 90.057 59.672 90.345 59.24C90.681 58.76 91.041 58.256 91.425 57.728C91.809 57.152 92.217 56.576 92.649 56C93.609 54.656 94.737 53.12 96.033 51.392L95.529 46.136L89.409 46.352ZM84.801 26.912L101.073 30.728L101.361 60.32L107.481 60.752L107.553 64.064L98.625 64.928L95.601 58.592L91.857 64.496L79.689 66.8L75.225 61.4L75.513 50.456L87.825 42.464L95.457 41.456L96.033 33.608L84.009 32.024L80.481 38.144L76.521 33.968L77.241 32.168L84.801 26.912ZM138.481 64.712L127.321 65.288L113.281 60.68L112.705 42.896L118.825 30.584L128.977 27.128L136.753 31.592L132.865 41.744L130.633 40.592L132.865 33.896L130.057 31.592L121.633 35.552L117.745 44.48L118.825 57.368L127.321 60.68L136.753 59.096L138.481 64.712ZM176.33 62.408L173.378 67.088L167.33 63.344L157.322 47.36L154.154 48.944V62.048L159.626 63.632L160.058 65.648L145.73 66.008L145.442 63.848L148.898 62.408L147.458 17.336L143.498 16.256L143.642 14.312L159.122 13.952L158.906 16.76L154.01 17.84L154.154 45.272L157.034 44.192L162.866 36.488L167.762 27.488L171.938 28.784L166.466 39.08L161.426 45.848L171.65 59.456L176.33 62.408Z" fill="black"/>
<g id="Next">
<g id="Nextjs">
<g id="Next_2">
<path id="Vector" d="M790 308.761H66V310.658H790V308.761Z" fill="black"/>
<path id="Vector 2" d="M322.44 163.76H416.379V171.513H331.051V229.857H411.291V237.609H331.051V301.666H417.358V309.417H322.44L322.44 163.76ZM424.795 163.76H434.776L479.006 227.817L524.214 163.76L585.706 82.3942L484.682 234.549L536.739 309.417H526.367L479.006 241.281L431.449 309.417H421.272L473.722 234.549L424.795 163.76ZM540.458 171.513V163.76H647.511V171.513H598.192V309.417H589.581V171.513H540.458ZM204.917 163.76H215.681L364.109 394.365L302.772 309.417L213.92 174.777L213.529 309.417H204.917V163.76ZM646.642 299.326C646.023 299.335 645.414 299.153 644.894 298.803C644.374 298.452 643.966 297.949 643.723 297.356C643.479 296.764 643.41 296.111 643.526 295.478C643.641 294.845 643.935 294.263 644.37 293.804C644.805 293.346 645.362 293.032 645.97 292.903C646.577 292.774 647.208 292.835 647.781 293.08C648.355 293.323 648.846 293.74 649.192 294.274C649.537 294.809 649.722 295.438 649.722 296.081C649.732 296.507 649.661 296.929 649.511 297.326C649.361 297.721 649.135 298.082 648.847 298.384C648.56 298.687 648.217 298.926 647.838 299.088C647.458 299.251 647.052 299.331 646.642 299.326ZM655.104 290.791H659.712C659.775 293.382 661.597 295.124 664.278 295.124C667.273 295.124 668.969 293.251 668.969 289.745V267.536H673.661V289.767C673.661 296.081 670.142 299.718 664.32 299.718C658.853 299.718 655.104 296.19 655.104 290.791ZM679.798 290.508H684.447C684.845 293.491 687.652 295.385 691.694 295.385C695.464 295.385 698.228 293.36 698.228 290.573C698.228 288.177 696.469 286.741 692.469 285.761L688.573 284.781C683.106 283.453 680.614 280.71 680.614 276.094C680.614 270.497 685.013 266.775 691.61 266.775C697.747 266.775 702.229 270.497 702.501 275.789H697.935C697.495 272.893 695.065 271.086 691.547 271.086C687.84 271.086 685.369 272.936 685.369 275.767C685.369 278.009 686.96 279.294 690.898 280.252L694.228 281.102C700.428 282.603 702.983 285.216 702.983 289.942C702.983 295.951 698.5 299.718 691.338 299.718C684.636 299.718 680.133 296.125 679.798 290.508Z" fill="black"/>
</g>
<g id="Little Tree">
<path id="Vector 3" d="M141.738 272.077C154.748 272.077 165.295 261.127 165.295 247.619C165.295 234.111 154.748 223.16 141.738 223.16C128.727 223.16 118.18 234.111 118.18 247.619C118.18 261.127 128.727 272.077 141.738 272.077Z" fill="#A4BDA2"/>
<path id="Vector 4" d="M142.961 308.075H140.515L141.738 247.974L142.961 308.075Z" fill="black"/>
<path id="Vector 5" d="M143.832 295.557L142.64 294.606L154.321 272.257L143.832 295.557Z" fill="black"/>
</g>
<g id="Big Tree">
<path id="Vector 6" d="M735.782 165.598C758.071 165.598 776.14 147.407 776.14 124.966C776.14 102.526 758.071 84.3341 735.782 84.3341C713.492 84.3341 695.423 102.526 695.423 124.966C695.423 147.407 713.492 165.598 735.782 165.598Z" fill="#A4BDA2"/>
<path id="Vector 7" d="M737.82 310.35H735.374L736.597 126.659L737.82 310.35Z" fill="black"/>
<path id="Vector 8" d="M737.381 258.311L736.189 257.36L747.87 235.011L737.381 258.311Z" fill="black"/>
<path id="Vector 9" d="M735.676 222.543L734.215 222.912L724.755 199.458L735.676 222.543Z" fill="black"/>
</g>
</g>
</g>
<g id="Firebase">
<path id="Vector_2" d="M952 289.037L989.586 82.0254C990.105 78.7395 993.743 76.4991 997.553 77.0965C999.632 77.3953 1001.54 78.5901 1002.58 80.2331L1041.37 142.665L1056.79 117.274C1058.52 114.287 1062.68 113.241 1066.14 114.735C1067.36 115.332 1068.39 116.229 1069.09 117.274L1173.7 289.037H952Z" fill="#FFA000"/>
<path id="Vector_3" d="M1081.73 208.383L1041.37 142.516L952 289.037L1081.73 208.383Z" fill="#F57C00"/>
<path id="Vector_4" d="M1173.7 289.037L1144.95 135.645C1144.26 132.359 1140.79 130.268 1136.98 130.717C1135.6 130.866 1134.21 131.463 1133.17 132.359L952 289.037L1052.29 337.579C1058.52 340.566 1066.32 340.566 1072.55 337.579L1173.7 289.037Z" fill="#FFCA28"/>
</g>
<g id="Logo_material_design 1">
<path id="Vector_5" d="M1336 234.188V99L1463.5 166.594V211.656L1378.5 166.594V256.719L1336 234.188Z" fill="#00B0FF"/>
<path id="Vector_6" d="M1463.5 166.594L1591 99V234.188L1506 279.25L1463.5 256.719L1548.5 211.656V166.594L1463.5 211.656V166.594Z" fill="#0081CB"/>
<path id="Vector_7" d="M1463.5 256.719V301.781L1548.5 346.844V301.781L1463.5 256.719Z" fill="#00B0FF"/>
<path id="Vector_8" d="M1548.5 346.844L1676 279.25V189.125L1633.5 211.656V256.719L1548.5 301.781V346.844ZM1633.5 166.594V121.531L1676 99V144.063L1633.5 166.594Z" fill="#0081CB"/>
</g>
</g>
<defs>
<filter id="filter0_d" x="-1" y="0" width="1764" height="424" filterUnits="userSpaceOnUse" color-interpolation-filters="sRGB">
<feFlood flood-opacity="0" result="BackgroundImageFix"/>
<feColorMatrix in="SourceAlpha" type="matrix" values="0 0 0 0 0 0 0 0 0 0 0 0 0 0 0 0 0 0 127 0"/>
<feOffset dy="4"/>
<feGaussianBlur stdDeviation="2"/>
<feColorMatrix type="matrix" values="0 0 0 0 0 0 0 0 0 0 0 0 0 0 0 0 0 0 0.25 0"/>
<feBlend mode="normal" in2="BackgroundImageFix" result="effect1_dropShadow"/>
<feBlend mode="normal" in="SourceGraphic" in2="effect1_dropShadow" result="shape"/>
</filter>
</defs>
</svg>
