<svg width="888" height="443" viewBox="0 0 888 443" fill="none" xmlns="http://www.w3.org/2000/svg">
<g id="Nextjs" clip-path="url(#clip0)">
<g id="Next">
<path id="Vector" d="M888 341.123H0V343.364H888V341.123Z" fill="black"/>
<path id="Vector_2" d="M314.528 169.829H429.747V178.987H325.09V247.911H423.506V257.069H325.09V332.741H430.948V341.898H314.529L314.528 169.829ZM440.069 169.829H452.311L506.56 245.501L562.009 169.829L637.429 73.7083L513.521 253.454L577.371 341.898H564.649L506.56 261.407L448.23 341.898H435.748L500.079 253.454L440.069 169.829ZM581.932 178.987V169.829H713.234V178.987H652.744V341.898H642.182V178.987H581.932ZM170.385 169.829H183.587L365.637 442.25L290.405 341.898L181.427 182.843L180.947 341.898H170.385V169.829ZM712.169 329.977C711.409 329.988 710.662 329.773 710.025 329.359C709.387 328.945 708.887 328.35 708.588 327.65C708.289 326.951 708.205 326.179 708.347 325.431C708.488 324.684 708.849 323.996 709.382 323.454C709.916 322.913 710.599 322.542 711.344 322.389C712.089 322.237 712.863 322.309 713.566 322.598C714.27 322.886 714.872 323.378 715.296 324.009C715.72 324.641 715.946 325.384 715.946 326.144C715.959 326.647 715.871 327.146 715.687 327.614C715.503 328.081 715.226 328.507 714.873 328.864C714.521 329.222 714.1 329.505 713.635 329.696C713.17 329.888 712.672 329.983 712.169 329.977ZM722.548 319.894H728.199C728.276 322.955 730.511 325.013 733.799 325.013C737.473 325.013 739.553 322.801 739.553 318.659V292.423H745.308V318.685C745.308 326.144 740.992 330.44 733.851 330.44C727.146 330.44 722.548 326.273 722.548 319.894ZM752.835 319.56H758.537C759.025 323.084 762.468 325.321 767.426 325.321C772.05 325.321 775.44 322.929 775.44 319.637C775.44 316.807 773.283 315.11 768.376 313.952L763.598 312.795C756.893 311.226 753.836 307.985 753.836 302.532C753.836 295.921 759.231 291.523 767.323 291.523C774.85 291.523 780.347 295.921 780.681 302.172H775.081C774.541 298.751 771.561 296.616 767.246 296.616C762.699 296.616 759.668 298.802 759.668 302.146C759.668 304.795 761.62 306.313 766.449 307.444L770.534 308.448C778.138 310.222 781.272 313.309 781.272 318.891C781.272 325.99 775.774 330.44 766.989 330.44C758.769 330.44 753.246 326.196 752.835 319.56Z" fill="black"/>
</g>
<g id="Little Tree">
<path id="Vector_3" d="M92.8936 297.787C108.851 297.787 121.787 284.851 121.787 268.894C121.787 252.936 108.851 240 92.8936 240C76.9361 240 64 252.936 64 268.894C64 284.851 76.9361 297.787 92.8936 297.787Z" fill="#6EB741"/>
<path id="Vector_4" d="M94.3936 340.313H91.3936L92.8936 269.313L94.3936 340.313Z" fill="black"/>
<path id="Vector_5" d="M95.462 325.525L94 324.401L108.327 298L95.462 325.525Z" fill="black"/>
</g>
<g id="Big Tree">
<path id="Vector_6" d="M821.5 172C848.838 172 871 150.51 871 124C871 97.4903 848.838 76 821.5 76C794.162 76 772 97.4903 772 124C772 150.51 794.162 172 821.5 172Z" fill="#6EB741"/>
<path id="Vector_7" d="M824 343H821L822.5 126L824 343Z" fill="black"/>
<path id="Vector_8" d="M823.462 281.525L822 280.401L836.327 254L823.462 281.525Z" fill="black"/>
<path id="Vector_9" d="M821.37 239.271L819.578 239.707L807.976 212L821.37 239.271Z" fill="black"/>
</g>
</g>
<defs>
<clipPath id="clip0">
<rect width="888" height="442.25" fill="white"/>
</clipPath>
</defs>
</svg>
