<svg width="1822" height="1236" viewBox="0 0 1822 1236" fill="none" xmlns="http://www.w3.org/2000/svg">
<g id="Programmer" clip-path="url(#clip0)" filter="url(#filter0_d)">
<g id="Person">
<path id="Vector" d="M1018.2 89.8297C1058.55 89.8297 1097.25 102.253 1125.79 124.367C1154.32 146.48 1170.35 176.473 1170.35 207.746V258.052H866.04V207.746C866.04 176.473 882.07 146.48 910.605 124.367C939.14 102.253 977.842 89.8297 1018.2 89.8297Z" fill="#E14B5A"/>
<path id="Vector_2" d="M1019.26 366.902C1115.05 366.902 1192.7 325.552 1192.7 274.545C1192.7 223.537 1115.05 182.187 1019.26 182.187C923.476 182.187 845.825 223.537 845.825 274.545C845.825 325.552 923.476 366.902 1019.26 366.902Z" fill="#E14B5A"/>
<path id="Vector_3" d="M908.081 364.015C908.081 364.015 944.323 510.798 908.081 550.384C871.838 589.97 1018.82 605.636 1018.82 605.636L1170.96 562.758L1192.24 457.2C1192.24 457.2 1099.62 416.787 1118.81 335.149L908.081 364.015Z" fill="#F7C4A7"/>
<path id="Vector_4" d="M1357.12 858.804C1357.12 858.804 1366.7 890.963 1314.56 896.736C1283.77 900.247 1252.45 899.957 1221.78 895.878L1210.28 815.099H1331.59L1357.12 858.804Z" fill="#F7C4A7"/>
<path id="Vector_5" d="M436.288 817.642C436.288 817.642 413.254 890.183 465.403 896.737C517.551 903.29 709.031 903.337 709.031 903.337V817.517L622.331 831.872L540.948 771.393L436.288 817.642Z" fill="#F7C4A7"/>
<path id="Vector_6" opacity="0.1" d="M919.275 411.435L715.494 444.826C715.494 444.826 637.815 447.307 587.801 527.291C537.786 607.275 429.241 835.711 429.241 835.711C429.241 835.711 521.86 763.139 630.365 840.657L702.729 739.234L686.762 900.044H1247.47V824.164C1247.47 824.164 1364.51 872.816 1356.01 900.029C1356.01 900.029 1456.18 700.022 1434.54 609.132C1428.02 581.033 1424.03 552.619 1422.58 524.092C1421.3 500.598 1410.67 477.986 1392.15 459.36C1373.62 440.734 1348.12 427.007 1319.13 420.063C1308.58 417.551 1296.98 415.195 1284.09 413.089C1163.85 393.303 1133.08 413.089 1133.08 413.089C1133.08 413.089 1109.79 471.82 1110.21 498.44C1110.73 532.659 1047.43 555.346 1047.43 555.346C1047.43 555.346 953.786 538.026 949.538 524.014C945.289 510.002 911.785 427.928 919.275 411.435Z" fill="black"/>
<path id="Vector_7" d="M919.275 408.142L715.494 441.534C715.494 441.534 637.815 444.015 587.801 523.999C537.786 603.983 429.221 832.45 429.221 832.45C429.221 832.45 521.84 759.878 630.345 837.396L702.708 735.973L686.742 896.736H1247.47V820.872C1247.47 820.872 1364.51 869.524 1356.01 896.736C1356.01 896.736 1456.18 696.73 1434.54 605.839C1428.02 577.741 1424.03 549.326 1422.58 520.8C1421.3 497.305 1410.67 474.693 1392.15 456.067C1373.62 437.441 1348.12 423.715 1319.13 416.771C1308.58 414.259 1296.98 411.903 1284.09 409.796C1163.85 390.011 1133.08 409.796 1133.08 409.796C1133.08 409.796 1109.79 468.528 1110.21 495.148C1110.73 529.366 1047.43 552.054 1047.43 552.054C1047.43 552.054 953.786 534.734 949.538 520.722C945.289 506.71 911.785 424.635 919.275 408.142Z" fill="#575988"/>
<path id="Vector_8" d="M1163.45 317.018C1163.28 346.444 1148.2 374.641 1121.45 395.529C1094.71 416.418 1058.44 428.323 1020.47 428.68C982.504 429.036 945.876 417.814 918.486 397.434C891.095 377.053 875.137 349.147 874.053 319.733C874.053 318.828 874.053 317.923 874.053 317.018C874.046 296.018 881.646 275.439 895.988 257.622C910.329 239.804 930.836 225.465 955.175 216.234C959.511 214.591 963.967 213.113 968.544 211.803C992.351 205.021 1018.03 203.17 1043.04 206.435C1075.1 210.665 1104.38 223.145 1126.16 241.859C1147.93 260.573 1160.94 284.429 1163.06 309.575C1163.32 312.04 1163.45 314.521 1163.45 317.018Z" fill="#F7C4A7"/>
<path id="Vector_9" d="M968.323 211.896L968.524 211.803C963.947 213.113 959.491 214.591 955.155 216.234C930.816 225.465 910.309 239.804 895.968 257.622C881.626 275.439 874.026 296.018 874.033 317.018C874.033 317.923 874.033 318.828 874.033 319.733C878.532 319.638 882.956 318.814 887.02 317.314C922.295 304.55 943.396 265.51 951.772 238.282C954.793 228.592 957.632 217.56 968.323 211.896Z" fill="#632652"/>
<path id="Vector_10" d="M1079.08 215.048C1067.63 210.97 1055.53 208.08 1043.1 206.451C1053.3 208.268 1062.4 212.7 1068.94 219.027C1072.14 222.404 1074.8 226.072 1076.85 229.95C1057.59 223.424 1036.73 220.218 1015.71 220.555C994.7 220.892 974.03 224.763 955.135 231.9C964.216 247.332 992.384 255.742 1011.19 261.375C1031.78 267.533 1052.59 273.166 1073.61 278.274L1055 266.571L1097.02 271.752C1097.48 265.271 1096.48 258.778 1094.08 252.559C1102.14 257.584 1112.81 259.269 1121.55 263.482C1137.92 271.486 1144.74 286.887 1153.66 300.228C1156.02 303.754 1158.8 307.359 1163.04 309.59C1161.33 289.434 1152.62 270.011 1137.84 253.371C1123.06 236.731 1102.76 223.491 1079.08 215.048Z" fill="#632652"/>
<path id="Vector_11" d="M857.523 295.984C857.523 295.984 1006.52 152.431 1178.89 295.984L1163.99 263.825C1163.99 263.825 1083.11 172.294 1025.67 192.049C968.222 211.803 911.805 225.862 911.805 225.862L857.523 295.984Z" fill="#E14B5A"/>
</g>
<g id="Light">
<g id="Polygon 1" style="mix-blend-mode:overlay" opacity="0.28">
<path d="M993.213 -583.334L1501.33 -104.309L1306.26 669.502L677.583 668.719L484.107 -105.576L993.213 -583.334Z" fill="white"/>
</g>
</g>
<g id="Computer">
<path id="Vector_12" opacity="0.1" d="M735.145 605.231C735.145 605.231 703.232 671.203 747.91 730.574C792.589 789.946 708.547 814.693 708.547 814.693" fill="black"/>
<path id="Vector_13" opacity="0.1" d="M1252.3 545.859C1252.3 545.859 1307.63 600.284 1271.45 648.936C1235.27 697.588 1237.4 814.693 1237.4 814.693" fill="black"/>
<path id="Vector_14" d="M686.198 863.345H1301.25C1314.79 863.345 1327.79 867.516 1337.37 874.939C1346.95 882.363 1352.33 892.432 1352.33 902.931H635.137C635.137 892.435 640.516 882.368 650.091 874.945C659.666 867.522 672.654 863.349 686.198 863.345Z" fill="#535461"/>
<path id="Vector_15" d="M748.776 591.203H1238.69C1249 591.203 1259.21 592.777 1268.74 595.835C1278.27 598.894 1286.92 603.376 1294.21 609.027C1301.51 614.678 1307.29 621.386 1311.24 628.769C1315.18 636.152 1317.21 644.066 1317.21 652.057V872.41H670.251V652.057C670.251 635.918 678.525 620.439 693.251 609.027C707.977 597.615 727.95 591.203 748.776 591.203Z" fill="#535461"/>
<path id="Vector_16" d="M993.189 773.874C1014.35 773.874 1031.51 760.58 1031.51 744.18C1031.51 727.781 1014.35 714.487 993.189 714.487C972.028 714.487 954.873 727.781 954.873 744.18C954.873 760.58 972.028 773.874 993.189 773.874Z" fill="white"/>
</g>
<g id="Desk">
<path id="Vector_17" d="M1713.4 903.446H153.559V1228H1713.4V903.446Z" fill="#D6D6E3"/>
<path id="Vector_18" opacity="0.1" d="M1713.4 925.291H153.559V967.421H1713.4V925.291Z" fill="black"/>
<path id="Vector_19" d="M1818 898.765H48.9202V940.895H1818V898.765Z" fill="#D6D6E3"/>
</g>
<g id="Panels">
<g id="Panels_2">
<path id="Vector_20" opacity="0.2" d="M1798.96 410.461H1694.26V452.591H1798.96V410.461Z" fill="#6C63FF"/>
<path id="Vector_21" opacity="0.2" d="M1567.28 126.73H1462.59V168.859H1567.28V126.73Z" fill="#6C63FF"/>
<path id="Vector_22" opacity="0.2" d="M1641.78 175.101H1537.08V217.23H1641.78V175.101Z" fill="#6C63FF"/>
<path id="Vector_23" opacity="0.2" d="M1440.44 129.851H1335.74V171.98H1440.44V129.851Z" fill="#6C63FF"/>
<path id="Vector_24" opacity="0.2" d="M1776.68 223.472H1671.98V265.601H1776.68V223.472Z" fill="#6C63FF"/>
<path id="Vector_25" opacity="0.2" d="M1649.84 226.593H1545.14V268.722H1649.84V226.593Z" fill="#6C63FF"/>
<path id="Vector_26" opacity="0.2" d="M1514.94 178.222H1410.24V220.351H1514.94V178.222Z" fill="#6C63FF"/>
<path id="Vector_27" opacity="0.2" d="M1671.54 389.036H1566.84V431.165H1671.54V389.036Z" fill="#6C63FF"/>
<path id="Vector_28" d="M266.836 421.637C266.836 421.637 414.402 535.996 331.106 705.622C247.809 875.248 473.879 1157.56 473.879 1157.56C473.879 1157.56 471.463 1157.28 466.973 1156.67C163.908 1115.22 13.3223 846.6 181.929 647.108C244.507 572.851 295.931 485.83 266.836 421.637Z" fill="#6C63FF"/>
<path id="Vector_29" d="M266.836 421.637C266.836 421.637 350.133 561.819 266.836 676.162C183.54 790.505 252.561 1111.5 473.9 1157.56" stroke="#535461" stroke-width="2" stroke-miterlimit="10"/>
<path id="Vector_30" d="M4 884.158C4 884.158 172.385 863.374 187.728 980.322C203.07 1097.27 511.531 1113.48 511.531 1113.48C511.531 1113.48 509.517 1114.54 505.752 1116.46C251.071 1245.97 7.62421 1198.99 44.3295 1026.96C57.9605 963.003 56.833 898.763 4 884.158Z" fill="#6C63FF"/>
<path id="Vector_31" opacity="0.2" d="M4 884.158C4 884.158 172.385 863.374 187.728 980.322C203.07 1097.27 511.531 1113.48 511.531 1113.48C511.531 1113.48 509.517 1114.54 505.752 1116.46C251.071 1245.97 7.62421 1198.99 44.3295 1026.96C57.9605 963.003 56.833 898.763 4 884.158Z" fill="#F5F5F5"/>
<path id="Vector_32" d="M4 884.158C4 884.158 134.693 906.393 123.962 998.485C113.23 1090.58 318.058 1201.03 511.531 1113.48" stroke="#535461" stroke-width="2" stroke-miterlimit="10"/>
<path id="Vector_33" opacity="0.2" d="M109.545 434.12H4.8457V476.25H109.545V434.12Z" fill="#6C63FF"/>
<path id="Vector_34" opacity="0.2" d="M184.043 482.491H79.3434V524.621H184.043V482.491Z" fill="#6C63FF"/>
<path id="Vector_35" opacity="0.2" d="M749.823 -9.02112H645.124V33.1085H749.823V-9.02112Z" fill="#6C63FF"/>
<path id="Vector_36" opacity="0.2" d="M1575.34 768.036H1470.64V810.166H1575.34V768.036Z" fill="#6C63FF"/>
<path id="Vector_37" opacity="0.2" d="M192.097 533.983H87.3972V576.112H192.097V533.983Z" fill="#6C63FF"/>
<path id="Vector_38" opacity="0.2" d="M824.321 39.3499H719.621V81.4795H824.321V39.3499Z" fill="#6C63FF"/>
<path id="Vector_39" opacity="0.2" d="M441.765 324.895H337.065V367.025H441.765V324.895Z" fill="#6C63FF"/>
<path id="Vector_40" opacity="0.2" d="M516.263 373.266H411.563V415.396H516.263V373.266Z" fill="#6C63FF"/>
<path id="Vector_41" opacity="0.2" d="M715.594 346.74H610.895V388.87H715.594V346.74Z" fill="#6C63FF"/>
<path id="Vector_42" opacity="0.2" d="M524.316 424.758H419.617V466.887H524.316V424.758Z" fill="#6C63FF"/>
<path id="Vector_43" opacity="0.2" d="M1545.05 831.071H1440.35V873.2H1545.05V831.071Z" fill="#6C63FF"/>
</g>
<path id="Vector_44" opacity="0.2" d="M1694.46 475.864H1589.76V517.994H1694.46V475.864Z" fill="#6C63FF"/>
<path id="Vector_45" opacity="0.2" d="M1705.46 801.752H1600.76V843.882H1705.46V801.752Z" fill="#6C63FF"/>
</g>
<path id="Software Developer" d="M222.448 213.312L226.984 216.408L229 213.6L232.816 216.624L226.048 224.76L223.312 222.24L219.856 217.776L209.056 219.504L203.368 225.264L207.76 233.4L226.408 238.296L230.8 243.696L229.504 257.736L214.6 264.648L201.424 261.048L199.192 264.648L194.8 263.64L199.192 253.992L202.864 255.072L214.24 258.744L225.472 254.28L223.312 243.12L201.208 238.584L197.104 223.536L204.736 214.608L222.448 213.312ZM248.089 230.952L241.753 239.16L243.121 253.344L251.113 260.904L256.513 260.832L263.281 247.584L260.257 235.128L255.433 231.528L248.089 230.952ZM257.881 226.128L265.513 233.184L268.393 249.672L258.241 265.584L248.161 266.016L237.577 253.272L236.785 236.856L245.785 226.128H257.881ZM283.587 221.304L283.515 228.936L293.379 227.568L293.811 231.384L283.587 232.464L284.739 260.256L288.915 260.328L290.067 263.784L275.883 263.568L275.523 261.192L278.979 260.688L278.331 236.496L278.403 233.688L273.435 233.04L273.651 230.448L277.971 229.08L278.043 219.792L285.171 212.088L296.763 213.96L295.539 217.92L287.115 216.624L283.587 221.304ZM322.269 261.768L310.461 264L304.845 258.456V251.04V232.464L301.389 233.04L298.581 233.688L298.077 230.232L303.189 228.576H304.197V221.808L303.189 219.504H309.309L309.885 225.768V228.072L319.965 226.848V232.464L309.885 231.96V255.648L313.269 259.464L322.269 257.808V261.768ZM357.909 259.968L364.317 230.592L360.645 229.08L360.861 226.992L372.381 228.288L372.093 230.376L368.925 230.88L361.221 265.44H354.453L348.405 240.024L348.189 238.44H348.045L347.901 239.952L342.285 265.008H335.661L326.805 230.736L323.781 229.656V227.568H335.301V229.656L332.133 230.736L338.325 259.464L339.045 259.608L346.317 229.656L350.061 229.872L357.405 259.968H357.909ZM387.972 245.352L379.908 250.752L379.691 258.816L382.572 260.328C383.532 260.28 384.42 260.232 385.236 260.184C385.908 260.136 386.508 260.088 387.036 260.04C387.612 259.944 387.9 259.848 387.9 259.752C387.9 259.752 387.996 259.608 388.188 259.32C388.38 259.032 388.62 258.672 388.908 258.24C389.244 257.76 389.604 257.256 389.988 256.728C390.372 256.152 390.78 255.576 391.212 255C392.172 253.656 393.3 252.12 394.596 250.392L394.092 245.136L387.972 245.352ZM383.364 225.912L399.636 229.728L399.924 259.32L406.044 259.752L406.116 263.064L397.188 263.928L394.164 257.592L390.42 263.496L378.252 265.8L373.788 260.4L374.076 249.456L386.388 241.464L394.02 240.456L394.596 232.608L382.572 231.024L379.044 237.144L375.084 232.968L375.804 231.168L383.364 225.912ZM435.963 234.336L431.571 238.08L427.755 232.536L421.923 234.48L420.195 238.296L420.483 259.896L424.731 261.264L424.299 263.784H411.555L411.339 261.84L414.723 260.472L414.651 231.672L411.123 229.656L414.219 225.696L419.475 229.08L419.907 231.528L423.579 230.088L430.851 228.288L435.963 234.336ZM447.198 244.704L464.046 242.04L462.03 232.608L457.206 230.808L447.774 233.976L447.126 244.992L447.198 244.704ZM461.814 227.784L467.574 232.824L469.662 245.208L447.126 248.808L451.014 260.256L459.51 260.04L469.59 257.016L470.166 262.704L449.862 265.584L441.006 252.48L442.014 233.976L451.662 226.992L461.814 227.784ZM536.204 231.168L526.7 220.512L518.708 218.568L513.38 220.008L512.948 257.304L526.7 258.672L535.412 248.664L536.204 231.168ZM541.892 229.944L539.588 253.056L528.068 264.576L509.78 263.28L498.98 263.496L499.196 261.264L506.972 259.464L507.26 218.136L502.22 216.192L502.508 213.6L509.636 213.24L527.492 214.608L541.892 229.944ZM553.862 244.704L570.71 242.04L568.694 232.608L563.87 230.808L554.438 233.976L553.79 244.992L553.862 244.704ZM568.478 227.784L574.238 232.824L576.326 245.208L553.79 248.808L557.678 260.256L566.174 260.04L576.254 257.016L576.83 262.704L556.526 265.584L547.67 252.48L548.678 233.976L558.326 226.992L568.478 227.784ZM617.07 231.528L613.182 232.176L601.374 264.936L594.534 264.72L583.662 230.304L580.422 229.368L580.638 227.424L593.31 227.28L593.526 229.224L589.854 230.592L597.414 258.816L599.502 258.384L607.926 230.304L605.262 228.432L605.766 226.704L618.006 229.152L617.07 231.528ZM627.831 244.704L644.679 242.04L642.663 232.608L637.839 230.808L628.407 233.976L627.759 244.992L627.831 244.704ZM642.447 227.784L648.207 232.824L650.295 245.208L627.759 248.808L631.647 260.256L640.143 260.04L650.223 257.016L650.799 262.704L630.495 265.584L621.639 252.48L622.647 233.976L632.295 226.992L642.447 227.784ZM673.399 263.928L658.207 263.64L657.991 261.768L663.175 260.256V217.056L659.359 217.848L659.647 213.096L668.791 212.88L668.143 260.184L673.039 261.192L673.399 263.928ZM689.019 230.952L682.683 239.16L684.051 253.344L692.043 260.904L697.443 260.832L704.211 247.584L701.187 235.128L696.363 231.528L689.019 230.952ZM698.811 226.128L706.443 233.184L709.323 249.672L699.171 265.584L689.091 266.016L678.507 253.272L677.715 236.856L686.715 226.128H698.811ZM741.974 246L738.014 234.408L729.95 233.328L722.462 235.992L722.894 254.64L730.382 257.52L739.958 253.272L741.974 246ZM748.526 247.296L741.038 260.328L729.446 262.56L722.174 259.248L722.534 275.448L727.358 277.104L727.07 279.912L712.526 279.84L712.238 277.68L716.702 275.88L716.27 230.88L713.822 230.016L716.27 225.264L722.534 228.504L722.03 231.384L729.59 228.576L741.902 228.72L748.526 247.296ZM760.511 244.704L777.359 242.04L775.343 232.608L770.519 230.808L761.087 233.976L760.439 244.992L760.511 244.704ZM775.127 227.784L780.887 232.824L782.975 245.208L760.439 248.808L764.327 260.256L772.823 260.04L782.903 257.016L783.479 262.704L763.175 265.584L754.319 252.48L755.327 233.976L764.975 226.992L775.127 227.784ZM815.51 234.336L811.118 238.08L807.302 232.536L801.47 234.48L799.742 238.296L800.03 259.896L804.278 261.264L803.846 263.784H791.102L790.886 261.84L794.27 260.472L794.198 231.672L790.67 229.656L793.766 225.696L799.022 229.08L799.454 231.528L803.126 230.088L810.398 228.288L815.51 234.336Z" fill="black"/>
<path id="Anders Bergquist" d="M63.04 182H44.416L42.208 179.696L49.696 177.584L46.72 164.048L44.416 159.632L20.608 162.608L19.072 167.792L17.632 177.584L23.584 179.696V182.768L4.288 181.328V178.256L10.144 176.816L28 114.224L38.464 115.76L57.184 176.816L62.368 178.256L63.04 182ZM42.208 153.008L34.048 123.152L32.608 123.92L22.816 155.12V156.752L42.208 153.008ZM125.652 175.184L109.62 183.248L103.86 180.272V151.088L100.884 142.352L93.5883 141.584L82.5483 157.616V177.296L87.7323 178.832L86.9643 182.48L69.4922 181.712L68.7243 179.6L73.8123 177.296V142.352L67.3803 138.704L72.3723 132.08L81.2043 141.584L82.5483 150.416L92.1483 135.056L104.532 135.728L111.828 148.88L110.292 174.512L111.828 175.856L120.564 169.328L125.652 175.184ZM158.743 143.696L147.511 139.472L137.239 142.832L134.743 161.648L143.287 175.76L148.759 174.512L158.263 164.528L158.743 143.696ZM161.815 181.52L157.879 172.784L151.543 181.328L136.951 180.464L127.255 161.072L133.015 138.608L146.935 133.04L159.799 138.32L160.279 114.32L166.327 107.12L171.703 111.536L167.671 114.896L166.039 176.048L175.255 174.32L177.175 180.272L161.815 181.52ZM190.212 156.272L212.676 152.72L209.988 140.144L203.556 137.744L190.98 141.968L190.116 156.656L190.212 156.272ZM209.7 133.712L217.38 140.432L220.164 156.944L190.116 161.744L195.3 177.008L206.628 176.72L220.068 172.688L220.836 180.272L193.764 184.112L181.956 166.64L183.3 141.968L196.164 132.656L209.7 133.712ZM263.545 142.448L257.689 147.44L252.601 140.048L244.825 142.64L242.521 147.728L242.905 176.528L248.569 178.352L247.993 181.712H231.001L230.713 179.12L235.225 177.296L235.129 138.896L230.425 136.208L234.553 130.928L241.561 135.44L242.137 138.704L247.033 136.784L256.729 134.384L263.545 142.448ZM289.277 131.888L300.029 136.304L303.869 132.56L307.997 135.44L300.701 145.232L297.245 141.968L281.501 138.224L276.413 144.176L283.037 153.488L302.333 158.288L305.021 174.608L292.349 182.48L275.453 178.64L273.149 182.576L268.349 181.712L271.613 171.632L291.197 176.24L297.245 171.728L294.941 163.664L274.397 156.656L268.829 145.232L273.437 134.576L289.277 131.888ZM386.906 166.256L386.426 157.136L377.498 148.976L364.058 151.472L362.522 152.72L361.946 173.456L364.25 175.28L377.882 174.704L386.906 166.256ZM361.562 122.864L362.33 142.544L363.386 144.464L377.018 141.488L385.178 134.288L379.13 121.424L365.21 121.616L361.562 122.864ZM394.586 167.216L382.874 182L355.322 181.424L344.954 181.328L344.474 178.16L355.226 176.336L353.594 121.136L345.338 118.352L344.666 115.184H355.706H355.802L369.242 114.8L384.41 116.72L392.57 136.112L383.066 146.192L390.458 151.28L394.586 167.216ZM412.4 156.272L434.864 152.72L432.176 140.144L425.744 137.744L413.168 141.968L412.304 156.656L412.4 156.272ZM431.888 133.712L439.568 140.432L442.352 156.944L412.304 161.744L417.488 177.008L428.816 176.72L442.256 172.688L443.024 180.272L415.952 184.112L404.144 166.64L405.488 141.968L418.352 132.656L431.888 133.712ZM485.733 142.448L479.877 147.44L474.789 140.048L467.013 142.64L464.709 147.728L465.093 176.528L470.757 178.352L470.181 181.712H453.189L452.901 179.12L457.413 177.296L457.317 138.896L452.613 136.208L456.741 130.928L463.749 135.44L464.325 138.704L469.221 136.784L478.917 134.384L485.733 142.448ZM497.109 149.552L504.309 159.44L518.133 161.744L524.085 150.416L520.533 141.584L506.901 139.472L500.277 142.544L497.109 149.552ZM499.605 164.048L497.685 174.8L517.653 175.856L524.277 176.528L528.693 189.968L494.709 198.512L489.621 186.512L496.341 188.048L496.821 193.328L521.109 185.072L519.669 182.096L492.789 178.928L490.197 172.208L494.229 159.632L490.677 155.312L490.965 144.56L500.565 134.672L516.405 134.384L518.229 135.824L530.709 127.664L531.765 132.176L522.837 139.088L525.045 140.72L531.477 148.688L524.277 167.024L503.157 166.736L499.605 164.048ZM585.505 198.32V202.16H566.209L565.441 199.088L571.585 196.784L572.449 176.816L570.049 175.952L560.833 181.328L545.473 178.352L537.889 159.824L546.241 134.48L562.369 132.176L579.265 136.784L577.825 144.56L580.129 196.784L585.505 198.32ZM570.817 167.6L570.049 141.296L561.601 139.088L550.945 141.296L545.473 154.544L547.009 165.296L556.321 174.608L564.673 172.112L570.817 167.6ZM645.989 176.816L631.877 183.536L626.501 182.096L624.773 176.528L623.525 169.904L606.533 183.44L596.549 179.984L593.669 168.656L593.381 139.088L589.349 137.36L589.637 135.056L606.821 134.672L606.341 138.128L601.349 140.144V167.216L604.901 175.76L611.141 172.304L622.757 165.872L624.293 139.184L620.069 137.264L620.357 134.672H635.525L636.005 137.936L631.013 139.856L630.725 175.472L632.165 177.872L641.765 169.52L645.989 176.816ZM668.799 183.248L649.599 183.44L649.119 180.656L654.207 178.64L654.591 138.032L647.583 135.632L646.911 133.232L666.879 132.08L667.839 134L661.983 137.264L661.599 178.544L668.415 180.56L668.799 183.248ZM655.647 125.936L652.383 119.408L656.319 115.664L662.463 116.432L662.943 122.864L655.647 125.936ZM694.558 131.888L705.31 136.304L709.15 132.56L713.278 135.44L705.982 145.232L702.526 141.968L686.782 138.224L681.694 144.176L688.318 153.488L707.614 158.288L710.302 174.608L697.63 182.48L680.734 178.64L678.43 182.576L673.63 181.712L676.894 171.632L696.478 176.24L702.526 171.728L700.222 163.664L679.678 156.656L674.11 145.232L678.718 134.576L694.558 131.888ZM750.109 179.024L734.365 182L726.877 174.608V164.72V139.952L722.269 140.72L718.525 141.584L717.853 136.976L724.669 134.768H726.013V125.744L724.669 122.672H732.829L733.597 131.024V134.096L747.037 132.464V139.952L733.597 139.28V170.864L738.109 175.952L750.109 173.744V179.024Z" fill="black"/>
</g>
<defs>
<filter id="filter0_d" x="0" y="0" width="1822" height="1236" filterUnits="userSpaceOnUse" color-interpolation-filters="sRGB">
<feFlood flood-opacity="0" result="BackgroundImageFix"/>
<feColorMatrix in="SourceAlpha" type="matrix" values="0 0 0 0 0 0 0 0 0 0 0 0 0 0 0 0 0 0 127 0"/>
<feOffset dy="4"/>
<feGaussianBlur stdDeviation="2"/>
<feColorMatrix type="matrix" values="0 0 0 0 0 0 0 0 0 0 0 0 0 0 0 0 0 0 0.25 0"/>
<feBlend mode="normal" in2="BackgroundImageFix" result="effect1_dropShadow"/>
<feBlend mode="normal" in="SourceGraphic" in2="effect1_dropShadow" result="shape"/>
</filter>
<clipPath id="clip0">
<rect width="1814" height="1228" fill="white" transform="translate(4)"/>
</clipPath>
</defs>
</svg>
